<svg width="1161" height="386" viewBox="0 0 1161 386" fill="none" xmlns="http://www.w3.org/2000/svg">
<path d="M385.832 193C385.832 299.591 299.461 386 192.916 386C86.3715 386 0 299.591 0 193C0 86.409 86.3715 0 192.916 0C299.461 0 385.832 86.409 385.832 193Z" fill="#FFA500"/>
<path d="M294.56 79.269C324.71 106.238 342.916 144.085 345.174 184.484C347.432 224.883 333.555 264.524 306.598 294.688C279.64 324.851 241.81 343.065 201.428 345.324C161.047 347.583 121.423 333.7 91.2727 306.731L294.56 79.269Z" fill="#FFCC53"/>
<path d="M278.053 147.914C281.396 145.61 285.998 146.441 288.044 149.948C293.291 158.942 297.084 168.727 299.265 178.941C301.446 189.156 301.982 199.637 300.866 209.991C300.432 214.028 296.57 216.668 292.579 215.932L220.695 202.681C214.256 201.494 212.466 193.111 217.858 189.395L278.053 147.914Z" fill="#FFA500"/>
<path d="M159.159 280.947C157.244 284.527 158.582 289.01 162.294 290.653C171.813 294.867 181.955 297.547 192.345 298.577C202.734 299.607 213.205 298.971 223.365 296.708C227.327 295.826 229.519 291.693 228.344 287.806L207.168 217.816C205.271 211.547 196.745 210.702 193.655 216.476L159.159 280.947Z" fill="#FFA500"/>
<path d="M289.819 225.01C293.74 226.059 296.095 230.101 294.756 233.935C291.322 243.765 286.342 253.002 279.99 261.291C273.638 269.58 266.015 276.791 257.418 282.661C254.065 284.95 249.552 283.725 247.521 280.209L210.946 216.897C207.669 211.225 212.882 204.422 219.207 206.115L289.819 225.01Z" fill="#FFA500"/>
<path d="M216.801 360.879C216.801 364.94 213.511 368.232 209.452 368.232C205.393 368.232 202.103 364.94 202.103 360.879C202.103 356.819 205.393 353.527 209.452 353.527C213.511 353.527 216.801 356.819 216.801 360.879Z" fill="#FFCC53"/>
<path d="M434.64 193.116L432.788 158.221C432.788 146.693 436.389 140.929 443.591 140.929C447.706 140.929 451.719 142.473 455.629 145.561C459.744 148.649 462.831 153.486 464.889 160.074C471.885 153.898 479.499 148.957 487.73 145.252C496.167 141.34 503.575 139.385 509.954 139.385C524.976 139.385 532.487 142.987 532.487 150.193C532.487 153.898 531.766 156.677 530.326 158.53C529.091 160.177 528.062 161.412 527.239 162.236C526.622 163.059 525.387 164.192 523.535 165.633C521.889 166.868 520.654 167.794 519.831 168.412C515.098 171.5 511.703 173.661 509.645 174.897C500.385 180.661 492.463 187.66 485.878 195.895C479.293 203.924 474.355 215.144 471.062 229.554C465.506 253.229 460.053 270.933 454.703 282.668C449.558 294.196 443.694 299.961 437.109 299.961C430.73 299.961 425.894 296.873 422.602 290.697C419.515 284.521 417.972 278.756 417.972 273.404C417.972 267.845 419.927 259.611 423.836 248.7C427.952 237.789 430.73 228.422 432.17 220.599C433.817 212.57 434.64 203.409 434.64 193.116Z" fill="#FFA500"/>
<path d="M660.677 212.57C664.381 215.864 666.233 218.849 666.233 221.525C666.233 224.202 664.998 229.76 662.529 238.201C660.06 246.641 658.413 253.229 657.59 257.964C656.767 262.493 656.047 266.095 655.43 268.772C655.018 271.448 654.709 273.61 654.504 275.257C654.298 276.698 653.886 278.55 653.269 280.815C652.857 283.079 652.446 284.932 652.034 286.373C651.829 287.609 651.417 289.153 650.8 291.005C650.388 292.652 649.874 293.99 649.256 295.02C648.639 295.843 647.919 296.77 647.096 297.799C645.861 299.446 643.803 300.269 640.922 300.269C638.042 300.269 634.44 297.387 630.119 291.623C626.004 285.859 622.917 278.859 620.859 270.625C601.516 290.388 585.26 300.269 572.09 300.269C563.241 300.269 553.673 295.431 543.384 285.756C533.095 275.874 527.951 266.096 527.951 256.42C527.951 246.538 532.375 232.539 541.223 214.423C550.072 196.307 562.11 179.529 577.337 164.089C592.771 148.649 607.998 140.929 623.02 140.929C631.662 140.929 641.643 145.972 652.96 156.06C664.278 166.147 669.937 175.411 669.937 183.852C669.937 192.086 666.85 201.659 660.677 212.57ZM570.855 261.361C579.086 261.361 589.993 255.802 603.574 244.685C617.361 233.363 625.901 219.158 629.193 202.071C629.399 199.601 631.148 198.16 634.44 197.748C633.823 186.013 631.868 180.146 628.576 180.146C620.345 180.146 611.085 185.499 600.796 196.204C590.713 206.909 582.379 218.334 575.794 230.481C569.415 242.627 566.225 251.582 566.225 257.346C566.225 258.993 566.431 260.125 566.843 260.743C567.46 261.155 568.797 261.361 570.855 261.361Z" fill="#FFA500"/>
<path d="M800.43 140.929C811.131 140.929 820.494 145.766 828.519 155.442C836.75 164.912 840.865 175.102 840.865 186.013C840.865 203.512 837.985 221.834 832.223 240.98C826.667 259.92 820.493 274.536 813.703 284.829C807.118 295.123 800.327 300.269 793.331 300.269C786.54 300.269 783.145 295.431 783.145 285.756C783.145 278.345 786.54 263.419 793.331 240.98C798.475 222.452 801.048 209.173 801.048 201.145C801.048 193.116 800.019 189.101 797.961 189.101C795.286 189.101 792.611 190.44 789.936 193.116C787.466 195.792 785.408 198.16 783.762 200.218C782.116 202.277 780.161 204.953 777.898 208.247C775.84 211.335 773.988 214.217 772.342 216.893C770.901 219.364 768.946 222.658 766.477 226.775C764.213 230.686 762.361 233.98 760.921 236.657C759.48 239.127 757.629 242.421 755.365 246.538C736.228 282.359 721.206 300.269 710.3 300.269C705.978 300.269 700.525 296.564 693.941 289.153C687.356 281.536 684.063 275.977 684.063 272.477C684.063 270.213 685.504 265.375 688.385 257.964C691.471 250.347 693.632 244.582 694.867 240.671C696.307 236.554 697.439 232.23 698.262 227.701C699.291 223.172 700.114 218.334 700.731 213.188C701.349 207.835 701.76 203.718 701.966 200.836C702.377 197.954 702.789 193.425 703.201 187.249C705.052 160.486 706.596 145.664 707.83 142.781C709.271 139.899 710.814 138.458 712.46 138.458C720.28 138.458 727.791 141.752 734.993 148.34C742.195 154.722 745.796 160.589 745.796 165.941C745.796 178.705 742.504 197.027 735.919 220.908C749.295 197.439 761.435 178.293 772.342 163.471C783.454 148.443 792.816 140.929 800.43 140.929Z" fill="#FFA500"/>
<path d="M979.676 207.629C982.762 211.129 984.306 215.349 984.306 220.29C984.306 225.231 982.248 231.304 978.132 238.509C972.988 250.861 968.461 266.198 964.551 284.521C960.641 302.843 956.732 317.459 952.822 328.37C949.118 339.487 945.002 348.957 940.475 356.78C936.154 364.603 930.186 371.087 922.573 376.234C914.959 381.381 906.213 383.954 896.336 383.954C882.549 383.954 870.202 379.425 859.296 370.367C848.39 361.309 842.937 353.486 842.937 346.898C842.937 340.516 844.686 334.649 848.184 329.297C851.682 324.15 854.872 321.577 857.753 321.577C860.839 321.577 863.72 323.223 866.395 326.517C869.276 329.811 871.849 333.311 874.112 337.017C876.581 340.928 879.771 344.531 883.681 347.825C887.59 351.118 891.912 352.765 896.645 352.765C901.378 352.765 905.699 349.677 909.609 343.501C913.518 337.325 916.502 330.635 918.56 323.429C923.704 306.548 926.894 294.505 928.129 287.3C914.136 295.946 902.715 300.269 893.867 300.269C885.224 300.269 876.787 295.534 868.556 286.065C860.325 276.389 856.209 267.331 856.209 258.89C856.209 250.244 858.473 239.539 863 226.775C867.733 213.805 873.7 200.939 880.903 188.175C888.311 175.205 897.571 164.089 908.683 154.825C920 145.561 931.318 140.929 942.636 140.929C950.25 140.929 956.732 142.884 962.082 146.796C967.432 150.501 971.342 155.545 973.811 161.927C978.132 173.044 980.293 185.602 980.293 199.601C980.293 201.659 980.087 204.335 979.676 207.629ZM894.175 257.346C894.175 260.022 895.307 261.361 897.571 261.361C903.538 261.361 913.21 255.905 926.585 244.994C939.961 234.083 948.912 223.275 953.439 212.57V206.703C953.439 193.322 952.204 185.19 949.735 182.308C948.5 180.867 946.854 180.146 944.797 180.146C934.919 180.146 924.013 190.542 912.078 211.335C900.143 232.127 894.175 247.465 894.175 257.346Z" fill="#FFA500"/>
<path d="M1045.87 194.351V193.116C1045.87 190.645 1047 188.587 1049.26 186.94C1051.94 183.646 1057.19 179.117 1065 173.353C1072.82 167.588 1080.13 162.236 1086.92 157.295C1093.92 152.148 1100.19 146.075 1105.75 139.076C1111.3 132.076 1114.08 125.283 1114.08 118.695C1114.08 116.225 1113.16 114.989 1111.3 114.989C1104.51 114.989 1094.84 118.386 1082.29 125.18C1069.74 131.767 1061.71 135.061 1058.21 135.061C1054.72 135.061 1049.16 131.459 1041.55 124.253C1033.93 116.842 1030.13 111.387 1030.13 107.887C1030.13 102.123 1034.96 96.5643 1044.63 91.2118C1054.3 85.6534 1065.31 81.4331 1077.66 78.551C1090.21 75.463 1101.22 73.919 1110.69 73.919C1124.27 73.919 1136 78.8598 1145.88 88.7414C1155.96 98.623 1161 109.019 1161 119.93C1161 130.841 1156.37 142.164 1147.11 153.898C1138.06 165.427 1126.74 175.823 1113.16 185.087C1141.97 191.469 1156.37 204.541 1156.37 224.305C1156.37 236.862 1149.06 249.214 1134.45 261.361C1120.05 273.301 1102.56 282.771 1081.98 289.77C1061.4 296.77 1041.96 300.269 1023.64 300.269C1001.42 300.269 990.308 295.431 990.308 285.756C990.308 280.403 1008.83 272.271 1045.87 261.361C1059.65 257.449 1072.31 252.097 1083.83 245.303C1095.56 238.509 1101.43 231.51 1101.43 224.305C1101.43 220.393 1099.37 217.408 1095.25 215.349C1091.14 213.085 1086.51 211.644 1081.36 211.026C1065.73 209.173 1055.54 206.394 1050.81 202.689C1047.51 200.63 1045.87 197.851 1045.87 194.351Z" fill="#FFA500"/>
</svg>
